<svg width="14" height="16" viewBox="0 0 14 16" fill="none" xmlns="http://www.w3.org/2000/svg">
<path id="path4" d="M13.7066 12.4689C13.4552 13.0279 13.1577 13.5424 12.813 14.0155C12.3431 14.6604 11.9584 15.1068 11.6619 15.3547C11.2023 15.7616 10.7098 15.97 10.1825 15.9818C9.8039 15.9818 9.34735 15.8781 8.81592 15.6678C8.28274 15.4584 7.79275 15.3547 7.34472 15.3547C6.87484 15.3547 6.37089 15.4584 5.83186 15.6678C5.29201 15.8781 4.85712 15.9878 4.52461 15.9986C4.01892 16.0194 3.51488 15.8051 3.01175 15.3547C2.69063 15.0851 2.28898 14.6229 1.80781 13.9681C1.29156 13.2688 0.867126 12.458 0.534618 11.5336C0.178514 10.5351 0 9.5682 0 8.63213C0 7.55987 0.240686 6.63506 0.722776 5.86007C1.10166 5.23757 1.6057 4.74652 2.23655 4.38604C2.8674 4.02556 3.54904 3.84186 4.2831 3.83011C4.68476 3.83011 5.21148 3.94971 5.86603 4.18476C6.51873 4.42061 6.93783 4.54021 7.12157 4.54021C7.25895 4.54021 7.72452 4.40036 8.51378 4.12156C9.26015 3.863 9.89008 3.75594 10.4061 3.79811C11.8045 3.90675 12.8551 4.4374 13.5537 5.39342C12.3031 6.12288 11.6845 7.14457 11.6968 8.45525C11.708 9.47616 12.0928 10.3257 12.8489 11.0003C13.1916 11.3133 13.5742 11.5553 14 11.7272C13.9077 11.9849 13.8102 12.2318 13.7066 12.4689ZM10.4995 0.320091C10.4995 1.12027 10.1958 1.8674 9.5905 2.55894C8.86003 3.38104 7.97649 3.85608 7.01836 3.78112C7.00616 3.68512 6.99908 3.58409 6.99908 3.47792C6.99908 2.70975 7.34646 1.88765 7.96336 1.21547C8.27135 0.875136 8.66305 0.592152 9.13806 0.36641C9.61205 0.144037 10.0604 0.0210593 10.482 0C10.4944 0.106972 10.4995 0.213951 10.4995 0.320081V0.320091Z" fill="#191D23"/>
</svg>
