<svg width="24" height="24" viewBox="0 0 24 24" fill="none" xmlns="http://www.w3.org/2000/svg">
<g id="Frame" clip-path="url(#clip0_85_1094)">
<g id="Group">
<path id="Vector" d="M22.5 21H1.50001C0.671548 21 0 20.3284 0 19.5C0 18.6716 0.671548 18 1.50001 18H22.5C23.3285 18 24.0001 18.6716 24.0001 19.5C24 20.3284 23.3285 21 22.5 21ZM22.5 13.5H1.50001C0.671548 13.5 0 12.8284 0 12C0 11.1716 0.671548 10.5 1.50001 10.5H22.5C23.3285 10.5 24.0001 11.1715 24.0001 12C24.0001 12.8285 23.3285 13.5 22.5 13.5ZM22.5 5.99996H1.50001C0.671548 5.99996 0 5.32841 0 4.49995C0 3.67149 0.671548 2.99994 1.50001 2.99994H22.5C23.3285 2.99994 24.0001 3.67149 24.0001 4.49995C24.0001 5.32841 23.3285 5.99996 22.5 5.99996Z" fill="#191D23"/>
</g>
</g>
<defs>
<clipPath id="clip0_85_1094">
<rect width="24" height="24" fill="white"/>
</clipPath>
</defs>
</svg>
