<svg width="13" height="12" viewBox="0 0 13 12" fill="none" xmlns="http://www.w3.org/2000/svg">
<g id="Icons">
<g id="Shape">
<path fill-rule="evenodd" clip-rule="evenodd" d="M5.61623 2.10072C5.99184 1.39124 7.0082 1.39123 7.38381 2.10072L11.0534 9.03208C11.4059 9.69808 10.9231 10.5 10.1696 10.5H2.83047C2.0769 10.5 1.5941 9.69809 1.94668 9.03208L5.61623 2.10072ZM10.1696 9.49997L6.50002 2.5686L2.83047 9.49997L10.1696 9.49997Z" fill="#991B1B"/>
<path d="M6.00002 4.99997C6.00002 4.72383 6.22388 4.49997 6.50002 4.49997C6.77616 4.49997 7.00002 4.72383 7.00002 4.99997V6.99997C7.00002 7.27611 6.77616 7.49997 6.50002 7.49997C6.22388 7.49997 6.00002 7.27611 6.00002 6.99997V4.99997Z" fill="#991B1B"/>
<path d="M7.00002 8.49997C7.00002 8.77611 6.77616 8.99997 6.50002 8.99997C6.22388 8.99997 6.00002 8.77611 6.00002 8.49997C6.00002 8.22383 6.22388 7.99997 6.50002 7.99997C6.77616 7.99997 7.00002 8.22383 7.00002 8.49997Z" fill="#991B1B"/>
</g>
</g>
</svg>
