<svg width="13" height="13" viewBox="0 0 13 13" fill="none" xmlns="http://www.w3.org/2000/svg">
  <g id="vuesax/linear/like">
    <g id="vuesax/linear/like_2">
      <g id="like">
        <path id="Vector"
          d="M4.05176 9.93934L5.73092 11.2393C5.94759 11.456 6.43509 11.5643 6.76009 11.5643H8.81842C9.46842 11.5643 10.1726 11.0768 10.3351 10.4268L11.6351 6.47268C11.9059 5.71434 11.4184 5.06434 10.6059 5.06434H8.43926C8.11426 5.06434 7.84342 4.79351 7.89759 4.41434L8.16842 2.68101C8.27676 2.19351 7.95176 1.65184 7.46426 1.48934C7.03092 1.32684 6.48926 1.54351 6.27259 1.86851L4.05176 5.17268"
          stroke="" stroke-miterlimit="10" />
        <path id="Vector_2"
          d="M1.28906 9.93955V4.63122C1.28906 3.87288 1.61406 3.60205 2.3724 3.60205H2.91406C3.6724 3.60205 3.9974 3.87288 3.9974 4.63122V9.93955C3.9974 10.6979 3.6724 10.9687 2.91406 10.9687H2.3724C1.61406 10.9687 1.28906 10.6979 1.28906 9.93955Z"
          stroke="" stroke-linecap="round" stroke-linejoin="round" />
      </g>
    </g>
  </g>
</svg>