<svg width="208" height="33" viewBox="0 0 208 33" fill="none" xmlns="http://www.w3.org/2000/svg">
<path d="M5.05378 12.2609L8.29718 10.3904L6.48677 7.25634H23.5132L15.0027 22.002L13.1923 18.8625L9.94897 20.7386L15.0027 29.4898L30 3.50977H0L5.05378 12.2609Z" fill="url(#paint0_linear_97_1110)"/>
<path d="M38.48 26L43.76 8.72H48.632L53.912 26H50.552L45.848 10.76H46.472L41.84 26H38.48ZM41.648 22.4V19.352H50.768V22.4H41.648ZM61.7748 26.36C60.4308 26.36 59.2788 26.06 58.3188 25.46C57.3588 24.86 56.6228 24.044 56.1108 23.012C55.5988 21.98 55.3428 20.816 55.3428 19.52C55.3428 18.208 55.6068 17.036 56.1348 16.004C56.6708 14.972 57.4228 14.16 58.3908 13.568C59.3588 12.976 60.5028 12.68 61.8228 12.68C63.3508 12.68 64.6308 13.068 65.6628 13.844C66.7028 14.612 67.3668 15.664 67.6548 17L64.3908 17.864C64.1988 17.192 63.8628 16.668 63.3828 16.292C62.9108 15.916 62.3748 15.728 61.7748 15.728C61.0868 15.728 60.5228 15.896 60.0828 16.232C59.6428 16.56 59.3188 17.012 59.1108 17.588C58.9028 18.156 58.7988 18.8 58.7988 19.52C58.7988 20.648 59.0468 21.564 59.5428 22.268C60.0468 22.964 60.7908 23.312 61.7748 23.312C62.5108 23.312 63.0708 23.144 63.4548 22.808C63.8388 22.472 64.1268 21.992 64.3188 21.368L67.6548 22.064C67.2868 23.44 66.5908 24.5 65.5668 25.244C64.5428 25.988 63.2788 26.36 61.7748 26.36ZM85.655 26V18.344C85.655 17.488 85.451 16.824 85.043 16.352C84.643 15.872 84.087 15.632 83.375 15.632C82.919 15.632 82.523 15.74 82.187 15.956C81.851 16.164 81.587 16.46 81.395 16.844C81.211 17.22 81.119 17.656 81.119 18.152L79.751 17.24C79.751 16.352 79.959 15.568 80.375 14.888C80.799 14.208 81.363 13.68 82.067 13.304C82.779 12.92 83.567 12.728 84.431 12.728C85.911 12.728 87.027 13.168 87.779 14.048C88.539 14.92 88.919 16.064 88.919 17.48V26H85.655ZM70.031 26V13.04H72.911V17.336H73.319V26H70.031ZM77.855 26V18.344C77.855 17.488 77.651 16.824 77.243 16.352C76.843 15.872 76.287 15.632 75.575 15.632C74.895 15.632 74.347 15.868 73.931 16.34C73.523 16.804 73.319 17.408 73.319 18.152L71.951 17.192C71.951 16.344 72.163 15.584 72.587 14.912C73.011 14.24 73.579 13.708 74.291 13.316C75.011 12.924 75.815 12.728 76.703 12.728C77.719 12.728 78.551 12.944 79.199 13.376C79.855 13.808 80.339 14.384 80.651 15.104C80.963 15.824 81.119 16.616 81.119 17.48V26H77.855ZM97.829 26.36C96.501 26.36 95.329 26.076 94.313 25.508C93.305 24.932 92.513 24.144 91.937 23.144C91.369 22.136 91.085 20.984 91.085 19.688C91.085 18.272 91.365 17.04 91.925 15.992C92.485 14.944 93.257 14.132 94.241 13.556C95.225 12.972 96.357 12.68 97.637 12.68C98.997 12.68 100.153 13 101.105 13.64C102.057 14.28 102.761 15.18 103.217 16.34C103.673 17.5 103.833 18.864 103.697 20.432H100.469V19.232C100.469 17.912 100.257 16.964 99.833 16.388C99.417 15.804 98.733 15.512 97.781 15.512C96.669 15.512 95.849 15.852 95.321 16.532C94.801 17.204 94.541 18.2 94.541 19.52C94.541 20.728 94.801 21.664 95.321 22.328C95.849 22.984 96.621 23.312 97.637 23.312C98.277 23.312 98.825 23.172 99.281 22.892C99.737 22.612 100.085 22.208 100.325 21.68L103.589 22.616C103.101 23.8 102.329 24.72 101.273 25.376C100.225 26.032 99.077 26.36 97.829 26.36ZM93.533 20.432V18.008H102.125V20.432H93.533ZM112.935 26.36C111.655 26.36 110.499 26.136 109.467 25.688C108.443 25.232 107.599 24.584 106.935 23.744C106.279 22.896 105.863 21.888 105.687 20.72L109.095 20.216C109.335 21.208 109.831 21.972 110.583 22.508C111.335 23.044 112.191 23.312 113.151 23.312C113.687 23.312 114.207 23.228 114.711 23.06C115.215 22.892 115.627 22.644 115.947 22.316C116.275 21.988 116.439 21.584 116.439 21.104C116.439 20.928 116.411 20.76 116.355 20.6C116.307 20.432 116.223 20.276 116.103 20.132C115.983 19.988 115.811 19.852 115.587 19.724C115.371 19.596 115.095 19.48 114.759 19.376L110.271 18.056C109.935 17.96 109.543 17.824 109.095 17.648C108.655 17.472 108.227 17.22 107.811 16.892C107.395 16.564 107.047 16.132 106.767 15.596C106.495 15.052 106.359 14.368 106.359 13.544C106.359 12.384 106.651 11.42 107.235 10.652C107.819 9.884 108.599 9.312 109.575 8.936C110.551 8.56 111.631 8.376 112.815 8.384C114.007 8.4 115.071 8.604 116.007 8.996C116.943 9.388 117.727 9.96 118.359 10.712C118.991 11.456 119.447 12.368 119.727 13.448L116.199 14.048C116.071 13.488 115.835 13.016 115.491 12.632C115.147 12.248 114.735 11.956 114.255 11.756C113.783 11.556 113.287 11.448 112.767 11.432C112.255 11.416 111.771 11.488 111.315 11.648C110.867 11.8 110.499 12.024 110.211 12.32C109.931 12.616 109.791 12.968 109.791 13.376C109.791 13.752 109.907 14.06 110.139 14.3C110.371 14.532 110.663 14.72 111.015 14.864C111.367 15.008 111.727 15.128 112.095 15.224L115.095 16.04C115.543 16.16 116.039 16.32 116.583 16.52C117.127 16.712 117.647 16.984 118.143 17.336C118.647 17.68 119.059 18.136 119.379 18.704C119.707 19.272 119.871 19.992 119.871 20.864C119.871 21.792 119.675 22.604 119.283 23.3C118.899 23.988 118.379 24.56 117.723 25.016C117.067 25.464 116.323 25.8 115.491 26.024C114.667 26.248 113.815 26.36 112.935 26.36ZM123.93 31.76L126.426 24.896L126.474 26.912L120.834 13.04H124.218L128.01 22.856H127.242L131.01 13.04H134.274L126.954 31.76H123.93ZM141.025 26.36C139.393 26.36 138.073 25.992 137.065 25.256C136.065 24.512 135.457 23.464 135.241 22.112L138.577 21.608C138.713 22.216 139.013 22.692 139.477 23.036C139.949 23.38 140.545 23.552 141.265 23.552C141.857 23.552 142.313 23.44 142.633 23.216C142.953 22.984 143.113 22.664 143.113 22.256C143.113 22 143.049 21.796 142.921 21.644C142.793 21.484 142.505 21.328 142.057 21.176C141.617 21.024 140.929 20.824 139.993 20.576C138.937 20.304 138.093 20 137.461 19.664C136.829 19.328 136.373 18.928 136.093 18.464C135.813 17.992 135.673 17.424 135.673 16.76C135.673 15.928 135.885 15.208 136.309 14.6C136.733 13.984 137.329 13.512 138.097 13.184C138.873 12.848 139.785 12.68 140.833 12.68C141.849 12.68 142.749 12.836 143.533 13.148C144.317 13.46 144.949 13.904 145.429 14.48C145.917 15.056 146.217 15.736 146.329 16.52L142.993 17.12C142.937 16.64 142.729 16.26 142.369 15.98C142.009 15.7 141.521 15.536 140.905 15.488C140.305 15.448 139.821 15.528 139.453 15.728C139.093 15.928 138.913 16.216 138.913 16.592C138.913 16.816 138.989 17.004 139.141 17.156C139.301 17.308 139.625 17.464 140.113 17.624C140.609 17.784 141.361 17.992 142.369 18.248C143.353 18.504 144.141 18.804 144.733 19.148C145.333 19.484 145.769 19.892 146.041 20.372C146.313 20.844 146.449 21.416 146.449 22.088C146.449 23.416 145.969 24.46 145.009 25.22C144.049 25.98 142.721 26.36 141.025 26.36ZM156.862 26C155.966 26.168 155.086 26.24 154.222 26.216C153.366 26.2 152.598 26.052 151.918 25.772C151.246 25.484 150.734 25.024 150.382 24.392C150.062 23.8 149.894 23.2 149.878 22.592C149.862 21.976 149.854 21.28 149.854 20.504V9.44H153.118V20.312C153.118 20.816 153.122 21.272 153.13 21.68C153.146 22.08 153.23 22.4 153.382 22.64C153.67 23.096 154.13 23.344 154.762 23.384C155.394 23.424 156.094 23.392 156.862 23.288V26ZM147.646 15.56V13.04H156.862V15.56H147.646ZM165.071 26.36C163.743 26.36 162.571 26.076 161.555 25.508C160.547 24.932 159.755 24.144 159.179 23.144C158.611 22.136 158.327 20.984 158.327 19.688C158.327 18.272 158.607 17.04 159.167 15.992C159.727 14.944 160.499 14.132 161.483 13.556C162.467 12.972 163.599 12.68 164.879 12.68C166.239 12.68 167.395 13 168.347 13.64C169.299 14.28 170.003 15.18 170.459 16.34C170.915 17.5 171.075 18.864 170.939 20.432H167.711V19.232C167.711 17.912 167.499 16.964 167.075 16.388C166.659 15.804 165.975 15.512 165.023 15.512C163.911 15.512 163.091 15.852 162.563 16.532C162.043 17.204 161.783 18.2 161.783 19.52C161.783 20.728 162.043 21.664 162.563 22.328C163.091 22.984 163.863 23.312 164.879 23.312C165.519 23.312 166.067 23.172 166.523 22.892C166.979 22.612 167.327 22.208 167.567 21.68L170.831 22.616C170.343 23.8 169.571 24.72 168.515 25.376C167.467 26.032 166.319 26.36 165.071 26.36ZM160.775 20.432V18.008H169.367V20.432H160.775ZM188.897 26V18.344C188.897 17.488 188.693 16.824 188.285 16.352C187.885 15.872 187.329 15.632 186.617 15.632C186.161 15.632 185.765 15.74 185.429 15.956C185.093 16.164 184.829 16.46 184.637 16.844C184.453 17.22 184.361 17.656 184.361 18.152L182.993 17.24C182.993 16.352 183.201 15.568 183.617 14.888C184.041 14.208 184.605 13.68 185.309 13.304C186.021 12.92 186.809 12.728 187.673 12.728C189.153 12.728 190.269 13.168 191.021 14.048C191.781 14.92 192.161 16.064 192.161 17.48V26H188.897ZM173.273 26V13.04H176.153V17.336H176.561V26H173.273ZM181.097 26V18.344C181.097 17.488 180.893 16.824 180.485 16.352C180.085 15.872 179.529 15.632 178.817 15.632C178.137 15.632 177.589 15.868 177.173 16.34C176.765 16.804 176.561 17.408 176.561 18.152L175.193 17.192C175.193 16.344 175.405 15.584 175.829 14.912C176.253 14.24 176.821 13.708 177.533 13.316C178.253 12.924 179.057 12.728 179.945 12.728C180.961 12.728 181.793 12.944 182.441 13.376C183.097 13.808 183.581 14.384 183.893 15.104C184.205 15.824 184.361 16.616 184.361 17.48V26H181.097ZM200.346 26.36C198.714 26.36 197.394 25.992 196.386 25.256C195.386 24.512 194.778 23.464 194.562 22.112L197.898 21.608C198.034 22.216 198.334 22.692 198.798 23.036C199.27 23.38 199.866 23.552 200.586 23.552C201.178 23.552 201.634 23.44 201.954 23.216C202.274 22.984 202.434 22.664 202.434 22.256C202.434 22 202.37 21.796 202.242 21.644C202.114 21.484 201.826 21.328 201.378 21.176C200.938 21.024 200.25 20.824 199.314 20.576C198.258 20.304 197.414 20 196.782 19.664C196.15 19.328 195.694 18.928 195.414 18.464C195.134 17.992 194.994 17.424 194.994 16.76C194.994 15.928 195.206 15.208 195.63 14.6C196.054 13.984 196.65 13.512 197.418 13.184C198.194 12.848 199.106 12.68 200.154 12.68C201.17 12.68 202.07 12.836 202.854 13.148C203.638 13.46 204.27 13.904 204.75 14.48C205.238 15.056 205.538 15.736 205.65 16.52L202.314 17.12C202.258 16.64 202.05 16.26 201.69 15.98C201.33 15.7 200.842 15.536 200.226 15.488C199.626 15.448 199.142 15.528 198.774 15.728C198.414 15.928 198.234 16.216 198.234 16.592C198.234 16.816 198.31 17.004 198.462 17.156C198.622 17.308 198.946 17.464 199.434 17.624C199.93 17.784 200.682 17.992 201.69 18.248C202.674 18.504 203.462 18.804 204.054 19.148C204.654 19.484 205.09 19.892 205.362 20.372C205.634 20.844 205.77 21.416 205.77 22.088C205.77 23.416 205.29 24.46 204.33 25.22C203.37 25.98 202.042 26.36 200.346 26.36Z" fill="url(#paint1_linear_97_1110)"/>
<defs>
<linearGradient id="paint0_linear_97_1110" x1="37.3206" y1="7.81598" x2="-13.5338" y2="11.9171" gradientUnits="userSpaceOnUse">
<stop offset="0.100157" stop-color="#5125AD"/>
<stop offset="0.707994" stop-color="#8654EB"/>
</linearGradient>
<linearGradient id="paint1_linear_97_1110" x1="169.69" y1="30.5" x2="7.9154" y2="2.99408" gradientUnits="userSpaceOnUse">
<stop stop-color="#5125AD"/>
<stop offset="0.0001" stop-color="#5125AD"/>
<stop offset="1" stop-color="#8654EB"/>
</linearGradient>
</defs>
</svg>
