<svg width="24" height="24" viewBox="0 0 24 24" fill="none" xmlns="http://www.w3.org/2000/svg">
<g id="Frame">
<g id="Group">
<path id="Vector" d="M17.8124 8.28305C17.4883 6.98732 16.7405 5.83703 15.6879 5.01483C14.6353 4.19263 13.3382 3.74565 12.0026 3.74487C10.6669 3.7441 9.36926 4.18957 8.31571 5.01055C7.26216 5.83153 6.51308 6.98095 6.18742 8.2763C4.65129 8.42046 3.22974 9.15084 2.21804 10.3157C1.20634 11.4806 0.682261 12.9904 0.754662 14.5316C0.827064 16.0728 1.49038 17.5268 2.60683 18.5917C3.72328 19.6566 5.20704 20.2505 6.74992 20.25H8.99992C9.19883 20.25 9.3896 20.171 9.53025 20.0304C9.6709 19.8897 9.74992 19.699 9.74992 19.5C9.74992 19.3011 9.6709 19.1104 9.53025 18.9697C9.3896 18.8291 9.19883 18.75 8.99992 18.75H6.74992C6.15897 18.7518 5.57347 18.6371 5.02685 18.4125C4.48022 18.188 3.98318 17.858 3.5641 17.4413C2.71772 16.5999 2.24028 15.4566 2.2368 14.2632C2.23332 13.0697 2.70408 11.9237 3.54554 11.0773C4.38699 10.231 5.5302 9.75353 6.72367 9.75005C6.91611 9.76454 7.10708 9.70703 7.25952 9.58868C7.41196 9.47033 7.51501 9.29958 7.54867 9.10955C7.70139 8.0386 8.23536 7.05869 9.05251 6.3498C9.86966 5.64091 10.9151 5.25062 11.9969 5.25062C13.0787 5.25062 14.1242 5.64091 14.9413 6.3498C15.7585 7.05869 16.2925 8.0386 16.4452 9.10955C16.4844 9.29298 16.5861 9.45711 16.7328 9.57392C16.8796 9.69073 17.0624 9.75298 17.2499 9.75005C18.4434 9.75005 19.588 10.2242 20.4319 11.0681C21.2758 11.912 21.7499 13.0566 21.7499 14.25C21.7499 15.4435 21.2758 16.5881 20.4319 17.432C19.588 18.2759 18.4434 18.75 17.2499 18.75H14.9999C14.801 18.75 14.6102 18.8291 14.4696 18.9697C14.3289 19.1104 14.2499 19.3011 14.2499 19.5C14.2499 19.699 14.3289 19.8897 14.4696 20.0304C14.6102 20.171 14.801 20.25 14.9999 20.25H17.2499C18.7815 20.234 20.249 19.6329 21.3516 18.5697C22.4543 17.5066 23.1086 16.0621 23.1805 14.5321C23.2524 13.0021 22.7365 11.5025 21.7384 10.3407C20.7404 9.17884 19.3358 8.44267 17.8124 8.28305Z" fill="#717171"/>
<path id="Vector_2" d="M15.2193 14.7803C15.3608 14.9169 15.5502 14.9925 15.7469 14.9908C15.9435 14.9891 16.1316 14.9102 16.2707 14.7712C16.4097 14.6321 16.4886 14.444 16.4903 14.2474C16.492 14.0507 16.4164 13.8613 16.2798 13.7198L12.5298 9.9698C12.3892 9.8292 12.1984 9.75021 11.9996 9.75021C11.8007 9.75021 11.61 9.8292 11.4693 9.9698L7.71932 13.7198C7.5827 13.8613 7.50711 14.0507 7.50882 14.2474C7.51053 14.444 7.5894 14.6321 7.72846 14.7712C7.86751 14.9102 8.05562 14.9891 8.25227 14.9908C8.44892 14.9925 8.63837 14.9169 8.77982 14.7803L11.2496 12.3106V21.7501C11.2496 21.949 11.3286 22.1397 11.4692 22.2804C11.6099 22.421 11.8007 22.5001 11.9996 22.5001C12.1985 22.5001 12.3893 22.421 12.5299 22.2804C12.6706 22.1397 12.7496 21.949 12.7496 21.7501V12.3106L15.2193 14.7803Z" fill="#717171"/>
</g>
</g>
</svg>
